<svg xmlns="http://www.w3.org/2000/svg" viewBox="0 0 32 32">
  <!-- 電球の本体 - より丸みを帯びたデザイン -->
  <path d="M16 4C11.2 4 7.5 7.7 7.5 12.5c0 3 1.6 5.6 4 7v2.5c0 1.1 0.9 2 2 2h5c1.1 0 2-0.9 2-2v-2.5c2.4-1.4 4-4 4-7C24.5 7.7 20.8 4 16 4z" fill="#FF0000"/>
  
  <!-- 電球の下部 - より特徴的な形状 -->
  <rect x="13" y="22" width="6" height="2" rx="1" fill="#FF0000"/>
  <rect x="14" y="24" width="4" height="2" rx="1" fill="#FF0000"/>
  
  <!-- 再生ボタン - より洗練された形状 -->
  <path d="M13.5 10.5v7l7-3.5z" fill="#FFFFFF"/>
  
  <!-- 光沢効果 -->
  <path d="M16 4c4.8 0 8.5 3.7 8.5 8.5c0 1.5-0.4 2.9-1 4.2c-0.8-5-5.1-8.7-10.2-8.7c-1.5 0-2.9 0.3-4.2 0.9C10.1 6.1 12.8 4 16 4z" fill="#FF4444" opacity="0.3"/>
</svg>