<?xml version="1.0" encoding="UTF-8"?>
<svg xmlns="http://www.w3.org/2000/svg" width="800" height="800" viewBox="0 0 800 800">
  <!-- 電球の本体 - より丸みを帯びたデザイン -->
  <path d="M400 100C300 100 187.5 192.5 187.5 312.5c0 75 40 140 100 175v62.5c0 27.5 22.5 50 50 50h125c27.5 0 50-22.5 50-50v-62.5c60-35 100-100 100-175C612.5 192.5 500 100 400 100z" fill="#FF0000"/>
  
  <!-- 電球の下部 - より特徴的な形状 -->
  <rect x="325" y="550" width="150" height="50" rx="25" fill="#FF0000"/>
  <rect x="350" y="600" width="100" height="50" rx="25" fill="#FF0000"/>
  
  <!-- 再生ボタン - より洗練された形状 -->
  <path d="M337.5 262.5v175l175-87.5z" fill="#FFFFFF"/>
  
  <!-- 光沢効果 -->
  <path d="M400 100c100 0 212.5 92.5 212.5 212.5c0 37.5-10 72.5-25 105c-20-125-127.5-217.5-255-217.5c-37.5 0-72.5 7.5-105 22.5C252.5 152.5 320 100 400 100z" fill="#FF4444" opacity="0.3"/>
</svg>